<svg xmlns="http://www.w3.org/2000/svg" viewBox="0 0 195.18 65.62"><defs><style>.cls-1{fill:#655be8;}</style></defs><g id="圖層_2" data-name="圖層 2"><g id="lohas"><path class="cls-1" d="M36.93,1.19A3.32,3.32,0,0,1,38.11.3,3.58,3.58,0,0,1,39.7,0l8.78,2.08.89.89V4.45l-27.26,43a1.32,1.32,0,0,0-.3,1.19,1.35,1.35,0,0,0,.89.89l23.71,8.3a3.06,3.06,0,0,1,2.07,1.77l1.19,3.86a2.31,2.31,0,0,1-.59,1.48,2.35,2.35,0,0,1-1.81.71l-45-6.93A3.54,3.54,0,0,1,.18,56.61a3.63,3.63,0,0,1,.59-3.26Z"/><circle class="cls-1" cx="38.41" cy="34.89" r="3.05"/><circle class="cls-1" cx="48.69" cy="39.83" r="3.05"/><circle class="cls-1" cx="32.98" cy="45.46" r="3.05"/><circle class="cls-1" cx="43.65" cy="50.5" r="3.05"/><path class="cls-1" d="M90.09,31c-5.69-6.17-17.65-4.4-26.72,3.95S51.56,55,57.24,61.21s17.65,4.41,26.72-4S95.77,37.14,90.09,31ZM78.85,53.44l-.16.09-.12.06a2,2,0,0,1-.59.5,14.82,14.82,0,0,1-1.14.79,2.3,2.3,0,0,1-.74.48,125.77,125.77,0,0,1-1.37.77,2.31,2.31,0,0,1-.68.28,2.48,2.48,0,0,1-.71.25,2.24,2.24,0,0,1-.75.28,2.37,2.37,0,0,1-.67.19,2.51,2.51,0,0,1-1,.21,2.86,2.86,0,0,1-.85.13h0l-.42.05a2.84,2.84,0,0,1-.75.1,3.42,3.42,0,0,1-.45,0h-.2a3,3,0,0,1-.83-.12h0a2.63,2.63,0,0,1-1-.17,2.52,2.52,0,0,1-1.07-.37,2.28,2.28,0,0,1-1-.5,2.09,2.09,0,0,1-.75-.66,9.58,9.58,0,0,1-1.09-1.23,8.09,8.09,0,0,1-.81-5.33s0-.05,0-.07l0-.17a2.75,2.75,0,0,1,.09-.5,2.76,2.76,0,0,1,.23-.94l0-.07.06-.17,0-.07a.49.49,0,0,1,0-.11h0a2.83,2.83,0,0,1,.4-1.24,2.33,2.33,0,0,1,.11-.28,2.08,2.08,0,0,1,.36-.65,2.89,2.89,0,0,1,.29-.55,2.77,2.77,0,0,1,.49-.78,2.55,2.55,0,0,1,.68-1,2.24,2.24,0,0,1,.6-.77,1.82,1.82,0,0,1,.38-.45,2.3,2.3,0,0,1,.5-.58,2.67,2.67,0,0,1,.5-.56,2.73,2.73,0,0,1,.34-.34,2.25,2.25,0,0,1,.89-.75,2.33,2.33,0,0,1,.63-.58,2.59,2.59,0,0,1,.59-.44,2.15,2.15,0,0,1,.6-.42,2.28,2.28,0,0,1,.53-.37,2.34,2.34,0,0,1,.75-.45,2.3,2.3,0,0,1,.75-.43,2.59,2.59,0,0,1,.5-.25l.24-.12A2.5,2.5,0,0,1,73,35.8a2.35,2.35,0,0,1,.67-.27,2.74,2.74,0,0,1,.72-.21l.32-.1.22,0a2.77,2.77,0,0,1,.41-.12,3.08,3.08,0,0,1,.89-.13h0a2.65,2.65,0,0,1,.92-.15h.05a3,3,0,0,1,.43,0h.08a2.9,2.9,0,0,1,.43,0,3.15,3.15,0,0,1,.44,0h.13a2.73,2.73,0,0,1,.83.12,2.58,2.58,0,0,1,.86.15,5.95,5.95,0,0,1,1.62.65,2.77,2.77,0,0,1,.55.33,1.75,1.75,0,0,1,.29.18,2.33,2.33,0,0,1,.9.86l.13.18a2.45,2.45,0,0,1,.63.9,3.06,3.06,0,0,1,.33.87.74.74,0,0,0,0,.14A2.91,2.91,0,0,1,85.31,41a3,3,0,0,1,0,.67,2.77,2.77,0,0,1,0,.41,24,24,0,0,1-1.68,5.21,30.64,30.64,0,0,1-2.75,4.37A9.27,9.27,0,0,1,78.85,53.44Z"/><path class="cls-1" d="M107.16,14.53a2.86,2.86,0,0,1,1.19-1.19,2.77,2.77,0,0,1,1.48-.3h5.86a1.8,1.8,0,0,1,.66.6,1.86,1.86,0,0,1,.3,1.18l-7,18a.64.64,0,0,0-.12.68.68.68,0,0,0,.88.3,23,23,0,0,1,8.3-4.45,22.73,22.73,0,0,1,6.82-.88,5.75,5.75,0,0,1,5.63,2.37,6,6,0,0,1,.59,5.33l-9.48,26.67a1.56,1.56,0,0,1-.59.89,1.65,1.65,0,0,1-1.19.3h-5.73a1.72,1.72,0,0,1-1.09-.59,1.74,1.74,0,0,1-.29-1.48q4-10.38,8-20.75a3.85,3.85,0,0,0-.59-4.15,4.08,4.08,0,0,0-3.56-1.19,21,21,0,0,0-5.33,1.78,20.67,20.67,0,0,0-4.45,3Q103,51.86,98.57,63.13a1.91,1.91,0,0,1-.59.59,2,2,0,0,1-1.07.3H90.64a1.65,1.65,0,0,1-1-.89,1.57,1.57,0,0,1,0-1.18Q98.43,38.24,107.16,14.53Z"/><path class="cls-1" d="M175.62,31.72a1.64,1.64,0,0,0-.59-.89l-3.55-.89a1.49,1.49,0,0,0-.6,0,1.59,1.59,0,0,0-.89.59l-2.37,3.26a20.32,20.32,0,0,0-2.37-2.37,21,21,0,0,0-4-2.67,18,18,0,0,0-4-.59,17.6,17.6,0,0,0-5,.59A28.08,28.08,0,0,0,131.76,49.2c-.15.51-1.84,6.39,2.08,11.26a12.48,12.48,0,0,0,8.59,4.45,19.7,19.7,0,0,0,7.71-1.78,20,20,0,0,0,5.92-4.19.7.7,0,0,1,.6,0,.63.63,0,0,1,.29.59l-.89,3a2,2,0,0,0,.3.89,1.77,1.77,0,0,0,.64.6h4.75a2.9,2.9,0,0,0,1.13-.6,3,3,0,0,0,.89-1.48L175.62,32.6A1.57,1.57,0,0,0,175.62,31.72ZM160.54,44.11a8.75,8.75,0,0,1-.17,1,10.9,10.9,0,0,1-.4,1.18l-.27.65-.22.53a3.59,3.59,0,0,1-.17.34c-.05.13-.1.25-.16.37a2.36,2.36,0,0,1-.12.28,1.89,1.89,0,0,1-.33.61,2.58,2.58,0,0,1-.3.54s0,0,0,0a7.83,7.83,0,0,1-1.06,1.5l-.13.18a8.53,8.53,0,0,1-1,1.15,4,4,0,0,1-.76.88,2.18,2.18,0,0,1-.35.4,10,10,0,0,1-2.13,1.7c-1.6,1.12-3.28,2.35-5.26,2.58h0l-.32.14a2.71,2.71,0,0,1-.57.09,1.93,1.93,0,0,1-.49.08,7.82,7.82,0,0,1-3-.09,5.62,5.62,0,0,1-1.55-.5l-.39-.24-.16-.1a4.94,4.94,0,0,1-.94-.77l-.16-.18a2.37,2.37,0,0,1-.54-.65,2.75,2.75,0,0,1-.35-.56,3,3,0,0,1-.36-.68l-.12-.31,0-.11,0,0a3,3,0,0,1-.1-.32,4.58,4.58,0,0,1-.14-.53,4,4,0,0,1-.21-.61,5.14,5.14,0,0,1,0-2,12.61,12.61,0,0,1,.5-2.83,2.18,2.18,0,0,1,.09-.23s0-.1,0-.15A2.09,2.09,0,0,1,139,47a19.45,19.45,0,0,1,1.68-3.46,8.61,8.61,0,0,1,1.72-2.46l0,0c.22-.27.44-.54.67-.8a.27.27,0,0,0,.07-.08,1.94,1.94,0,0,1,.28-.29,16,16,0,0,1,3.83-3.05l.32-.2.06,0c.21-.14.43-.26.65-.38s.65-.32,1-.46l.32-.14.27-.11.28-.12.3-.13a1.65,1.65,0,0,1,.61-.18h0l0,0a2.5,2.5,0,0,1,.66-.09,7.66,7.66,0,0,1,2.31-.25,2,2,0,0,1,.54,0,6.48,6.48,0,0,1,1.24.25,3.06,3.06,0,0,1,1.42.53,3.52,3.52,0,0,1,1.12.72C160.8,37.69,161.2,41.57,160.54,44.11Z"/><path class="cls-1" d="M195.18,29.64v3.44a2,2,0,0,1-.29,1,2,2,0,0,1-.59.59,11.36,11.36,0,0,0-8.3,3.26,3.38,3.38,0,0,0-.6,1.78,3.81,3.81,0,0,0,1.49,3,9.36,9.36,0,0,1,4.74,7.71,15.17,15.17,0,0,1-3,7.41,16.14,16.14,0,0,1-11.26,5.92l-5.63.3a1,1,0,0,1-1.18-1.19c.39-1.48.79-3,1.18-4.44a2.41,2.41,0,0,1,1.78-1.19l5-.29A5.27,5.27,0,0,0,183,53.35a4.47,4.47,0,0,0-.29-3.26c-.72-1.3-1.81-1.32-3.26-2.67a8.71,8.71,0,0,1-2.08-3,12.52,12.52,0,0,1,.89-6.52A12.65,12.65,0,0,1,183.63,32a15.19,15.19,0,0,1,11.55-2.37Z"/></g></g></svg>